HIERARCHY
ROOT Hips
{
	OFFSET 0.000000  0.463670  0.080341
	CHANNELS 6 Xposition Yposition Zposition Zrotation Yrotation Xrotation 
	JOINT LHipJoint
	{
		OFFSET 0 0 0
		CHANNELS 3 Zrotation Yrotation Xrotation
		JOINT LeftUpLeg
		{
			OFFSET 0.949434 -0.248378 0.086503
			CHANNELS 3 Zrotation Yrotation Xrotation
			JOINT LeftLeg
			{
				OFFSET -0.076513 -3.879421 -0.177038
				CHANNELS 3 Zrotation Yrotation Xrotation
				JOINT LeftFoot
				{
					OFFSET -0.188964 -3.680973 -0.122632
					CHANNELS 3 Zrotation Yrotation Xrotation
					JOINT LeftToeBase
					{
						OFFSET 0.055451 -0.524480 1.120382
						CHANNELS 3 Zrotation Yrotation Xrotation
						End Site
						{
							OFFSET 0.007944 -0.006006 0.139660
						}
					}
				}
			}
		}
	}
	JOINT RHipJoint
	{
		OFFSET 0 0 0
		CHANNELS 3 Zrotation Yrotation Xrotation
		JOINT RightUpLeg
		{
			OFFSET -0.949434 -0.248378 0.086503
			CHANNELS 3 Zrotation Yrotation Xrotation
			JOINT RightLeg
			{
				OFFSET 0.076513 -3.879421 -0.177038
				CHANNELS 3 Zrotation Yrotation Xrotation
				JOINT RightFoot
				{
					OFFSET 0.188964 -3.680973 -0.122632
					CHANNELS 3 Zrotation Yrotation Xrotation
					JOINT RightToeBase
					{
						OFFSET -0.055451 -0.524480 1.120382
						CHANNELS 3 Zrotation Yrotation Xrotation
						End Site
						{
							OFFSET -0.007944 -0.006006 0.139660
						}
					}
				}
			}
		}
	}
	JOINT LowerBack
	{
		OFFSET 0 0 0
		CHANNELS 3 Zrotation Yrotation Xrotation
		JOINT Spine
		{
			OFFSET 0.000000 0.677144 0.028277
			CHANNELS 3 Zrotation Yrotation Xrotation
			JOINT Spine1
			{
				OFFSET 0.000000 2.156116 -0.508617
				CHANNELS 3 Zrotation Yrotation Xrotation
				JOINT Neck
				{
					OFFSET 0 0 0
					CHANNELS 3 Zrotation Yrotation Xrotation
					JOINT Neck1
					{
						OFFSET 0.000000 1.781871 0.216275
						CHANNELS 3 Zrotation Yrotation Xrotation
						JOINT Head
						{
							OFFSET 0.000000 1.015906 -0.026879
							CHANNELS 3 Zrotation Yrotation Xrotation
							End Site
							{
								OFFSET 0.000000 0.339197 0.983632
							}
						}
					}
				}
				JOINT LeftShoulder
				{
					OFFSET 0 0 0
					CHANNELS 3 Zrotation Yrotation Xrotation
					JOINT LeftArm
					{
						OFFSET 1.565866 1.184736 0.289545
						CHANNELS 3 Zrotation Yrotation Xrotation
						JOINT LeftForeArm
						{
							OFFSET 1.930940 -0.176441 -0.109244
							CHANNELS 3 Zrotation Yrotation Xrotation
							JOINT LeftHand
							{
								OFFSET 2.263412 -0.058986 0.122483
								CHANNELS 3 Zrotation Yrotation Xrotation
								JOINT LeftFingerBase
								{
									OFFSET 0 0 0
									CHANNELS 3 Zrotation Yrotation Xrotation
									JOINT LeftHandIndex1
									{
										OFFSET 0.944218 0.017559 0.358417
										CHANNELS 3 Zrotation Yrotation Xrotation
										End Site
										{
											OFFSET 0.237801 -0.022714 0.035813
										}
									}
								}
								JOINT LThumb
								{
									OFFSET 0 0 0
									CHANNELS 3 Zrotation Yrotation Xrotation
									End Site
									{
										OFFSET 0.234930 -0.092931 0.244282
									}
								}
							}
						}
					}
				}
				JOINT RightShoulder
				{
					OFFSET 0 0 0
					CHANNELS 3 Zrotation Yrotation Xrotation
					JOINT RightArm
					{
						OFFSET -1.565866 1.184736 0.289545
						CHANNELS 3 Zrotation Yrotation Xrotation
						JOINT RightForeArm
						{
							OFFSET -1.930940 -0.176441 -0.109244
							CHANNELS 3 Zrotation Yrotation Xrotation
							JOINT RightHand
							{
								OFFSET -2.263412 -0.058986 0.122483
								CHANNELS 3 Zrotation Yrotation Xrotation
								JOINT RightFingerBase
								{
									OFFSET 0 0 0
									CHANNELS 3 Zrotation Yrotation Xrotation
									JOINT RightHandIndex1
									{
										OFFSET -0.944218 0.017559 0.358417
										CHANNELS 3 Zrotation Yrotation Xrotation
										End Site
										{
											OFFSET -0.237801 -0.022714 0.035813
										}
									}
								}
								JOINT RThumb
								{
									OFFSET 0 0 0
									CHANNELS 3 Zrotation Yrotation Xrotation
									End Site
									{
										OFFSET -0.234930 -0.092931 0.244282
									}
								}
							}
						}
					}
				}
			}
		}
	}
}
MOTION
Frames: 7
Frame Time: .0083333
5.717684 11.278316 8.556264 6.388400 0.207800 6.171200 0.000000 0.000000 0.000000 -1.391399 0.164200 1.715700 0.000000 0.035500 0.097500 0.267500 -8.147500 -10.109500 0.160200 2.578700 7.107900 0.000000 0.000000 0.000000 -12.247700 5.962100 8.053600 -0.040700 1.302500 -3.581400 -0.887800 -8.713300 -22.991501 -0.932500 -6.151200 17.223700 -7.520400 -2.970600 -8.717100 -0.901700 -3.227200 -1.782900 2.897800 -1.671500 3.387400 -11.471600 -15.160900 25.524601 11.135900 -21.291401 -21.498400 5.057900 -10.891400 -10.237000 0.000000 -0.000000 0.000000 -82.309700 2.102600 24.567400 10.898900 -18.133101 -1.744300 -0.000000 0.000000 -1.627200 0.427700 -14.238800 -0.105200 -7.125000 0.000000 -0.000000 -18.263599 16.167299 13.148800 0.000000 -0.000000 0.000000 78.662498 -6.734900 35.990700 -13.155700 21.514900 -2.510100 0.000000 0.000000 7.878700 -8.222400 -41.219002 5.439100 7.125000 -0.000000 -0.000000 38.796501 -67.681396 -22.457701
5.717053 11.278422 8.557105 6.453000 0.212900 6.182600 0.000000 0.000000 0.000000 -1.461901 0.177200 1.693800 0.000000 0.043800 0.120200 0.265100 -8.158900 -10.079800 0.159700 2.575000 7.097600 0.000000 0.000000 0.000000 -12.319600 5.962600 8.057200 -0.040900 1.305500 -3.589700 -0.879100 -8.780500 -22.970900 -0.918400 -6.105900 17.091900 -7.592300 -2.976900 -8.694400 -0.912500 -3.231300 -1.795900 2.927400 -1.673100 3.364800 -11.423700 -15.171100 25.376499 11.002900 -21.296000 -21.329000 4.994000 -10.887200 -10.182900 0.000000 0.000000 0.000000 -82.319397 2.107900 24.569401 10.909900 -18.150101 -1.747800 -0.000000 0.000000 -1.592000 0.371100 -14.178800 -0.090900 -7.125000 0.000000 -0.000000 -18.306000 16.225800 13.158300 0.000000 0.000000 0.000000 78.656998 -6.737900 35.973999 -13.142700 21.496000 -2.505400 0.000000 0.000000 7.901500 -8.223100 -41.222301 5.440000 7.125000 -0.000000 -0.000000 38.801201 -67.684097 -22.462999
5.716316 11.278474 8.558106 6.500000 0.215200 6.188100 0.000000 0.000000 0.000000 -1.508200 0.184300 1.684300 0.000100 0.047700 0.131100 0.263000 -8.163600 -10.053000 0.164400 2.612500 7.201600 0.000000 0.000000 0.000000 -12.361900 5.990100 8.081900 -0.041300 1.311700 -3.606800 -0.872300 -8.855500 -22.973000 -0.908000 -6.072000 16.993500 -7.649500 -2.980000 -8.669200 -0.918000 -3.232900 -1.806100 2.954800 -1.673500 3.343000 -11.373300 -15.188100 25.205500 10.859700 -21.308599 -21.137100 4.923500 -10.886400 -10.118900 -0.000000 0.000000 0.000000 -82.331299 2.119500 24.568501 10.923800 -18.171400 -1.752100 -0.000000 0.000000 -1.554700 0.311800 -14.128200 -0.076100 -7.125000 0.000000 -0.000000 -18.349400 16.275499 13.172000 -0.000000 0.000000 0.000000 78.650002 -6.749700 35.950600 -13.136300 21.486601 -2.503000 0.000000 0.000000 7.932700 -8.225100 -41.226101 5.441700 7.125000 -0.000000 -0.000000 38.805401 -67.687500 -22.468700
5.715632 11.278422 8.559211 6.546800 0.214800 6.189200 0.000000 0.000000 0.000000 -1.557501 0.178100 1.687800 0.000100 0.047600 0.130700 0.261800 -8.159000 -10.034800 0.173500 2.683000 7.397500 0.000000 0.000000 0.000000 -12.407000 6.012500 8.109500 -0.041800 1.319000 -3.626900 -0.867200 -8.914200 -22.976999 -0.900900 -6.049200 16.927099 -7.706200 -2.983700 -8.648300 -0.922600 -3.234800 -1.811200 2.982300 -1.674400 3.329000 -11.325800 -15.210600 25.034000 10.721000 -21.328100 -20.953800 4.854500 -10.889200 -10.055900 -0.000000 -0.000000 0.000000 -82.343300 2.132300 24.573799 10.937200 -18.191999 -1.756300 -0.000000 0.000000 -1.531000 0.239200 -14.084400 -0.058200 -7.125000 0.000000 -0.000000 -18.400900 16.318899 13.194900 -0.000000 -0.000000 0.000000 78.641296 -6.761100 35.926300 -13.131700 21.479799 -2.501300 0.000000 0.000000 7.964900 -8.237800 -41.223000 5.449800 7.125000 -0.000000 -0.000000 38.787399 -67.689102 -22.458401
5.715105 11.278263 8.560368 6.604900 0.210400 6.188000 0.000000 0.000000 0.000000 -1.626200 0.158600 1.700300 0.000000 0.045600 0.125400 0.261800 -8.144200 -10.030000 0.183800 2.761400 7.615000 0.000000 0.000000 0.000000 -12.473700 6.019000 8.130700 -0.042300 1.327000 -3.649000 -0.860700 -8.967600 -22.964300 -0.886500 -6.001900 16.790001 -7.770200 -2.989100 -8.638700 -0.931500 -3.236500 -1.809400 3.008800 -1.675800 3.328600 -11.274400 -15.234000 24.879900 10.593300 -21.348000 -20.802299 4.791300 -10.893000 -10.004100 -0.000000 -0.000000 0.000000 -82.349701 2.137600 24.596600 10.946500 -18.206200 -1.759200 -0.000000 0.000000 -1.536400 0.158800 -14.042600 -0.038500 -7.125000 0.000000 -0.000000 -18.457500 16.360600 13.222400 -0.000000 -0.000000 0.000000 78.632401 -6.766100 35.915001 -13.127500 21.473700 -2.499800 0.000000 0.000000 7.984700 -8.261000 -41.221001 5.465100 7.125000 -0.000000 -0.000000 38.760601 -67.694702 -22.445801
5.714737 11.278053 8.561684 6.683800 0.197400 6.187500 0.000000 0.000000 0.000000 -1.725401 0.135100 1.715000 0.000000 0.042900 0.117900 0.263100 -8.118800 -10.038800 0.191200 2.815800 7.766300 0.000000 0.000000 0.000000 -12.573100 6.018900 8.146600 -0.043000 1.337900 -3.679200 -0.848300 -9.048200 -22.922600 -0.855300 -5.897900 16.488501 -7.849300 -2.994900 -8.646300 -0.949500 -3.235200 -1.800500 3.033500 -1.676500 3.345100 -11.244400 -15.259400 24.769001 10.510700 -21.373600 -20.707399 4.749200 -10.901400 -9.968100 -0.000000 0.000000 0.000000 -82.344498 2.129400 24.648600 10.949500 -18.210800 -1.760100 -0.000000 0.000000 -1.572600 0.067100 -13.999500 -0.016200 -7.125000 0.000000 -0.000000 -18.521400 16.403799 13.255100 -0.000000 0.000000 0.000000 78.627502 -6.762000 35.919701 -13.124200 21.468901 -2.498600 0.000000 0.000000 7.988800 -8.272900 -41.242199 5.475400 7.125000 -0.000000 -0.000000 38.783901 -67.714302 -22.477501
5.714579 11.277842 8.563105 6.784500 0.181400 6.191300 0.000000 0.000000 0.000000 -1.857300 0.118800 1.722100 0.000000 0.041700 0.114400 0.264700 -8.090600 -10.051700 0.192000 2.822000 7.783500 0.000000 0.000000 0.000000 -12.710900 5.993600 8.146500 -0.043800 1.350100 -3.712600 -0.831200 -9.132300 -22.843500 -0.814000 -5.757300 16.081900 -7.940400 -3.001200 -8.671600 -0.979400 -3.231000 -1.785800 3.051800 -1.676500 3.377300 -11.228700 -15.276900 24.708401 10.483000 -21.391701 -20.675699 4.731800 -10.908400 -9.952000 -0.000000 -0.000000 0.000000 -82.327202 2.106900 24.722300 10.949900 -18.211399 -1.760200 -0.000000 0.000000 -1.623500 -0.031800 -13.935000 0.007600 -7.125000 0.000000 -0.000000 -18.592199 16.467300 13.284400 -0.000000 -0.000000 0.000000 78.631203 -6.744400 35.931999 -13.119100 21.461399 -2.496700 0.000000 0.000000 7.985600 -8.260700 -41.288502 5.472200 7.125000 -0.000000 -0.000000 38.874001 -67.745201 -22.562201
